<svg width="786" height="205" viewBox="0 0 786 205" fill="none" xmlns="http://www.w3.org/2000/svg">
<g clip-path="url(#clip0)">
<path d="M260.203 140.938L249.234 152.75V182H228.141V79.625H249.234V126.031L258.516 113.305L284.602 79.625H310.547L274.195 125.117L311.602 182H286.5L260.203 140.938ZM362.297 182C361.359 180.172 360.68 177.898 360.258 175.18C355.336 180.664 348.938 183.406 341.062 183.406C333.609 183.406 327.422 181.25 322.5 176.938C317.625 172.625 315.188 167.188 315.188 160.625C315.188 152.562 318.164 146.375 324.117 142.062C330.117 137.75 338.766 135.57 350.062 135.523H359.414V131.164C359.414 127.648 358.5 124.836 356.672 122.727C354.891 120.617 352.055 119.562 348.164 119.562C344.742 119.562 342.047 120.383 340.078 122.023C338.156 123.664 337.195 125.914 337.195 128.773H316.875C316.875 124.367 318.234 120.289 320.953 116.539C323.672 112.789 327.516 109.859 332.484 107.75C337.453 105.594 343.031 104.516 349.219 104.516C358.594 104.516 366.023 106.883 371.508 111.617C377.039 116.305 379.805 122.914 379.805 131.445V164.422C379.852 171.641 380.859 177.102 382.828 180.805V182H362.297ZM345.492 167.867C348.492 167.867 351.258 167.211 353.789 165.898C356.32 164.539 358.195 162.734 359.414 160.484V147.406H351.82C341.648 147.406 336.234 150.922 335.578 157.953L335.508 159.148C335.508 161.68 336.398 163.766 338.18 165.406C339.961 167.047 342.398 167.867 345.492 167.867ZM438.164 124.977C435.398 124.602 432.961 124.414 430.852 124.414C423.164 124.414 418.125 127.016 415.734 132.219V182H395.414V105.922H414.609L415.172 114.992C419.25 108.008 424.898 104.516 432.117 104.516C434.367 104.516 436.477 104.82 438.445 105.43L438.164 124.977ZM489.984 182C489.047 180.172 488.367 177.898 487.945 175.18C483.023 180.664 476.625 183.406 468.75 183.406C461.297 183.406 455.109 181.25 450.188 176.938C445.312 172.625 442.875 167.188 442.875 160.625C442.875 152.562 445.852 146.375 451.805 142.062C457.805 137.75 466.453 135.57 477.75 135.523H487.102V131.164C487.102 127.648 486.188 124.836 484.359 122.727C482.578 120.617 479.742 119.562 475.852 119.562C472.43 119.562 469.734 120.383 467.766 122.023C465.844 123.664 464.883 125.914 464.883 128.773H444.562C444.562 124.367 445.922 120.289 448.641 116.539C451.359 112.789 455.203 109.859 460.172 107.75C465.141 105.594 470.719 104.516 476.906 104.516C486.281 104.516 493.711 106.883 499.195 111.617C504.727 116.305 507.492 122.914 507.492 131.445V164.422C507.539 171.641 508.547 177.102 510.516 180.805V182H489.984ZM473.18 167.867C476.18 167.867 478.945 167.211 481.477 165.898C484.008 164.539 485.883 162.734 487.102 160.484V147.406H479.508C469.336 147.406 463.922 150.922 463.266 157.953L463.195 159.148C463.195 161.68 464.086 163.766 465.867 165.406C467.648 167.047 470.086 167.867 473.18 167.867ZM541.805 105.922L542.438 114.711C547.875 107.914 555.164 104.516 564.305 104.516C572.367 104.516 578.367 106.883 582.305 111.617C586.242 116.352 588.258 123.43 588.352 132.852V182H568.031V133.344C568.031 129.031 567.094 125.914 565.219 123.992C563.344 122.023 560.227 121.039 555.867 121.039C550.148 121.039 545.859 123.477 543 128.352V182H522.68V105.922H541.805ZM713.859 96.7109H682.5V182H661.406V96.7109H630.469V79.625H713.859V96.7109ZM756.891 182C755.953 180.172 755.273 177.898 754.852 175.18C749.93 180.664 743.531 183.406 735.656 183.406C728.203 183.406 722.016 181.25 717.094 176.938C712.219 172.625 709.781 167.188 709.781 160.625C709.781 152.562 712.758 146.375 718.711 142.062C724.711 137.75 733.359 135.57 744.656 135.523H754.008V131.164C754.008 127.648 753.094 124.836 751.266 122.727C749.484 120.617 746.648 119.562 742.758 119.562C739.336 119.562 736.641 120.383 734.672 122.023C732.75 123.664 731.789 125.914 731.789 128.773H711.469C711.469 124.367 712.828 120.289 715.547 116.539C718.266 112.789 722.109 109.859 727.078 107.75C732.047 105.594 737.625 104.516 743.812 104.516C753.188 104.516 760.617 106.883 766.102 111.617C771.633 116.305 774.398 122.914 774.398 131.445V164.422C774.445 171.641 775.453 177.102 777.422 180.805V182H756.891ZM740.086 167.867C743.086 167.867 745.852 167.211 748.383 165.898C750.914 164.539 752.789 162.734 754.008 160.484V147.406H746.414C736.242 147.406 730.828 150.922 730.172 157.953L730.102 159.148C730.102 161.68 730.992 163.766 732.773 165.406C734.555 167.047 736.992 167.867 740.086 167.867ZM808.711 105.922L809.344 114.711C814.781 107.914 822.07 104.516 831.211 104.516C839.273 104.516 845.273 106.883 849.211 111.617C853.148 116.352 855.164 123.43 855.258 132.852V182H834.938V133.344C834.938 129.031 834 125.914 832.125 123.992C830.25 122.023 827.133 121.039 822.773 121.039C817.055 121.039 812.766 123.477 809.906 128.352V182H789.586V105.922H808.711ZM898.359 151.484L891.047 158.797V182H870.727V74H891.047V133.836L894.984 128.773L914.461 105.922H938.859L911.367 137.633L941.25 182H917.906L898.359 151.484Z" fill="#FDFDFD"/>
</g>
<defs>
<clipPath id="clip0">
<rect width="603" height="205" fill="white" transform="translate(183)"/>
</clipPath>
</defs>
</svg>
