<svg width="603" height="205" viewBox="0 0 603 205" fill="none" xmlns="http://www.w3.org/2000/svg">
<path d="M63.4688 109.625L56.1562 117.5V137H42.0938V68.75H56.1562V99.6875L62.3438 91.2031L79.7344 68.75H97.0312L72.7969 99.0781L97.7344 137H81L63.4688 109.625ZM131.531 137C130.906 135.781 130.453 134.266 130.172 132.453C126.891 136.109 122.625 137.938 117.375 137.938C112.406 137.938 108.281 136.5 105 133.625C101.75 130.75 100.125 127.125 100.125 122.75C100.125 117.375 102.109 113.25 106.078 110.375C110.078 107.5 115.844 106.047 123.375 106.016H129.609V103.109C129.609 100.766 129 98.8906 127.781 97.4844C126.594 96.0781 124.703 95.375 122.109 95.375C119.828 95.375 118.031 95.9219 116.719 97.0156C115.438 98.1094 114.797 99.6094 114.797 101.516H101.25C101.25 98.5781 102.156 95.8594 103.969 93.3594C105.781 90.8594 108.344 88.9062 111.656 87.5C114.969 86.0625 118.688 85.3438 122.812 85.3438C129.062 85.3438 134.016 86.9219 137.672 90.0781C141.359 93.2031 143.203 97.6094 143.203 103.297V125.281C143.234 130.094 143.906 133.734 145.219 136.203V137H131.531ZM120.328 127.578C122.328 127.578 124.172 127.141 125.859 126.266C127.547 125.359 128.797 124.156 129.609 122.656V113.938H124.547C117.766 113.938 114.156 116.281 113.719 120.969L113.672 121.766C113.672 123.453 114.266 124.844 115.453 125.938C116.641 127.031 118.266 127.578 120.328 127.578ZM182.109 98.9844C180.266 98.7344 178.641 98.6094 177.234 98.6094C172.109 98.6094 168.75 100.344 167.156 103.812V137H153.609V86.2812H166.406L166.781 92.3281C169.5 87.6719 173.266 85.3438 178.078 85.3438C179.578 85.3438 180.984 85.5469 182.297 85.9531L182.109 98.9844ZM216.656 137C216.031 135.781 215.578 134.266 215.297 132.453C212.016 136.109 207.75 137.938 202.5 137.938C197.531 137.938 193.406 136.5 190.125 133.625C186.875 130.75 185.25 127.125 185.25 122.75C185.25 117.375 187.234 113.25 191.203 110.375C195.203 107.5 200.969 106.047 208.5 106.016H214.734V103.109C214.734 100.766 214.125 98.8906 212.906 97.4844C211.719 96.0781 209.828 95.375 207.234 95.375C204.953 95.375 203.156 95.9219 201.844 97.0156C200.562 98.1094 199.922 99.6094 199.922 101.516H186.375C186.375 98.5781 187.281 95.8594 189.094 93.3594C190.906 90.8594 193.469 88.9062 196.781 87.5C200.094 86.0625 203.812 85.3438 207.938 85.3438C214.188 85.3438 219.141 86.9219 222.797 90.0781C226.484 93.2031 228.328 97.6094 228.328 103.297V125.281C228.359 130.094 229.031 133.734 230.344 136.203V137H216.656ZM205.453 127.578C207.453 127.578 209.297 127.141 210.984 126.266C212.672 125.359 213.922 124.156 214.734 122.656V113.938H209.672C202.891 113.938 199.281 116.281 198.844 120.969L198.797 121.766C198.797 123.453 199.391 124.844 200.578 125.938C201.766 127.031 203.391 127.578 205.453 127.578ZM251.203 86.2812L251.625 92.1406C255.25 87.6094 260.109 85.3438 266.203 85.3438C271.578 85.3438 275.578 86.9219 278.203 90.0781C280.828 93.2344 282.172 97.9531 282.234 104.234V137H268.688V104.562C268.688 101.688 268.062 99.6094 266.812 98.3281C265.562 97.0156 263.484 96.3594 260.578 96.3594C256.766 96.3594 253.906 97.9844 252 101.234V137H238.453V86.2812H251.203ZM365.906 80.1406H345V137H330.938V80.1406H310.312V68.75H365.906V80.1406ZM394.594 137C393.969 135.781 393.516 134.266 393.234 132.453C389.953 136.109 385.688 137.938 380.438 137.938C375.469 137.938 371.344 136.5 368.062 133.625C364.812 130.75 363.188 127.125 363.188 122.75C363.188 117.375 365.172 113.25 369.141 110.375C373.141 107.5 378.906 106.047 386.438 106.016H392.672V103.109C392.672 100.766 392.062 98.8906 390.844 97.4844C389.656 96.0781 387.766 95.375 385.172 95.375C382.891 95.375 381.094 95.9219 379.781 97.0156C378.5 98.1094 377.859 99.6094 377.859 101.516H364.312C364.312 98.5781 365.219 95.8594 367.031 93.3594C368.844 90.8594 371.406 88.9062 374.719 87.5C378.031 86.0625 381.75 85.3438 385.875 85.3438C392.125 85.3438 397.078 86.9219 400.734 90.0781C404.422 93.2031 406.266 97.6094 406.266 103.297V125.281C406.297 130.094 406.969 133.734 408.281 136.203V137H394.594ZM383.391 127.578C385.391 127.578 387.234 127.141 388.922 126.266C390.609 125.359 391.859 124.156 392.672 122.656V113.938H387.609C380.828 113.938 377.219 116.281 376.781 120.969L376.734 121.766C376.734 123.453 377.328 124.844 378.516 125.938C379.703 127.031 381.328 127.578 383.391 127.578ZM429.141 86.2812L429.562 92.1406C433.188 87.6094 438.047 85.3438 444.141 85.3438C449.516 85.3438 453.516 86.9219 456.141 90.0781C458.766 93.2344 460.109 97.9531 460.172 104.234V137H446.625V104.562C446.625 101.688 446 99.6094 444.75 98.3281C443.5 97.0156 441.422 96.3594 438.516 96.3594C434.703 96.3594 431.844 97.9844 429.938 101.234V137H416.391V86.2812H429.141ZM488.906 116.656L484.031 121.531V137H470.484V65H484.031V104.891L486.656 101.516L499.641 86.2812H515.906L497.578 107.422L517.5 137H501.938L488.906 116.656Z" fill="#FDFDFD"/>
</svg>
